<?xml version="1.0" standalone="no"?>
<!DOCTYPE svg PUBLIC "-//W3C//DTD SVG 20010904//EN"
 "http://www.w3.org/TR/2001/REC-SVG-20010904/DTD/svg10.dtd">
<svg version="1.0" xmlns="http://www.w3.org/2000/svg"
 width="70.000000pt" height="70.000000pt" viewBox="0 0 70.000000 70.000000"
 preserveAspectRatio="xMidYMid meet">
<metadata>
Created by potrace 1.15, written by Peter Selinger 2001-2017
</metadata>
<g transform="translate(0.000000,70.000000) scale(0.100000,-0.100000)"
fill="#000000" stroke="none">
<path d="M175 678 c-19 -11 -33 -23 -30 -27 2 -5 -3 -15 -13 -22 -15 -13 -16
-12 -3 4 8 10 9 17 3 17 -14 0 -95 -96 -114 -135 -11 -22 -15 -66 -15 -168 0
-76 3 -133 7 -127 4 7 12 -2 21 -22 7 -18 38 -60 69 -92 30 -33 43 -51 28 -39
-26 19 -78 78 -106 119 -7 11 -6 5 3 -13 19 -41 102 -126 146 -149 52 -28 298
-29 352 -2 21 10 35 23 32 27 -2 5 3 15 13 22 15 13 16 12 3 -3 -8 -10 -9 -18
-3 -18 24 0 133 147 132 177 -1 4 -12 -12 -25 -37 -13 -25 -38 -61 -55 -80
l-32 -35 26 35 c15 19 39 60 54 90 24 48 27 67 27 150 0 83 -3 102 -27 150
-15 30 -40 71 -55 90 -26 33 -26 34 -3 15 20 -16 20 -14 -4 13 -31 33 -59 45
-35 15 13 -16 12 -17 -3 -4 -10 7 -15 17 -13 22 13 20 -62 43 -150 45 l-90 3
1 -117 1 -117 -7 95 c-7 108 -11 108 -11 1 l-1 -73 -34 33 c-43 42 -45 52 -1
13 l32 -29 -34 38 c-33 35 -61 51 -45 25 4 -6 3 -8 -3 -5 -14 9 -9 50 8 55 11
3 11 1 -1 -7 -13 -10 -13 -11 0 -11 8 0 22 5 30 10 13 9 13 10 0 10 -8 1 -1 7
16 14 18 8 35 19 39 26 22 35 -71 48 -130 18z m5 -93 c-7 -9 -8 -15 -2 -15 5
0 8 -9 5 -21 -5 -16 13 -40 78 -107 56 -58 62 -66 18 -24 l-66 64 -29 -27
c-16 -15 -23 -24 -16 -20 7 4 12 -1 12 -12 0 -21 148 -173 170 -173 21 0 170
151 170 173 0 42 -32 30 -101 -39 l-69 -68 -69 68 c-49 48 -74 67 -86 63 -9
-4 -14 -3 -10 3 12 20 31 9 97 -57 l68 -67 28 27 c20 20 28 35 26 58 -2 26 9
34 12 8 1 -5 2 -12 3 -16 0 -4 17 8 36 27 29 28 39 32 53 24 26 -17 26 -43 0
-72 l-23 -27 28 24 c34 31 34 54 0 81 l-26 21 -31 -28 c-17 -15 -9 -5 18 24
36 38 47 57 43 72 -3 12 0 21 5 21 6 0 5 8 -3 18 -14 18 36 -23 59 -48 7 -8
25 -40 40 -70 40 -84 37 -167 -8 -256 -21 -40 -49 -77 -70 -92 l-35 -25 38 36
c44 43 87 129 86 172 -1 26 -2 24 -9 -12 -12 -60 -43 -115 -87 -153 -21 -19
-38 -38 -38 -43 0 -6 -18 -16 -39 -23 -49 -17 -68 -33 -62 -51 3 -7 1 -13 -4
-13 -6 0 -9 33 -8 78 l1 77 7 -60 c7 -65 13 -65 10 0 -1 30 4 46 19 59 12 11
21 24 21 30 -1 6 -10 0 -20 -13 -11 -13 -20 -19 -20 -14 0 5 27 35 60 68 62
61 76 95 40 95 -14 0 -18 5 -13 18 6 15 5 15 -10 3 -9 -7 -14 -17 -11 -22 2
-5 -29 -43 -70 -85 -73 -74 -75 -77 -79 -132 -4 -52 -4 -51 -3 9 1 56 -1 65
-14 62 -9 -3 -23 4 -30 14 -12 15 -12 16 0 6 19 -18 39 -16 47 3 4 11 -15 36
-58 80 -35 35 -66 64 -69 64 -3 0 -7 -13 -8 -30 -2 -22 7 -41 35 -72 l37 -43
-37 35 c-21 19 -42 48 -46 65 -8 25 -9 26 -10 7 -1 -26 88 -127 120 -137 15
-5 19 -16 19 -52 0 -49 4 -48 -70 -28 -20 5 -22 5 -10 -5 13 -10 13 -11 0 -7
-8 2 -15 10 -15 17 0 7 -6 15 -14 18 -9 3 -11 0 -5 -9 7 -12 5 -12 -9 0 -20
16 -23 25 -4 15 6 -4 -2 8 -19 27 -36 39 -52 68 -70 124 -7 22 -13 31 -13 20
-1 -20 35 -99 65 -145 l16 -25 -21 25 c-13 14 -34 50 -49 80 -53 109 -29 241
60 330 40 39 62 54 38 25z"/>
</g>
</svg>
